<svg xmlns="http://www.w3.org/2000/svg" viewBox="0 0 133.06 49.68"><path d="M20.09,61.7c0,1.95,1.73,1.66,1.73,3.75,0,2.37-4,4.25-9.07,4.25-.51,0-3.25-.08-3.25-3.82,0-5.47,5.55-18.87,5.55-20.38,0-.36-2.74,2.81-6,2.81-4.82,0-7.41-3.6-7.41-6.12a2.1,2.1,0,0,1,2.23-2.31c1.08,0,2.09.51,3.38.51,5-.29,10.3-7,11-7.78s3.24-1.08,5-1.08c1.65,0,4.89.07,4.89,2.31C28.15,37.22,20.09,55.22,20.09,61.7Z" transform="translate(-1.66 -31.53)" style="fill:#fffdf4"/><path d="M34.13,68.33c-5.47,0-9.87-1.23-9.87-4,0-11.88,16.28-13.9,16.28-19.37,0-2-1.37-2.45-3.1-2.45-2.09,0-4.68.79-5.76.79A2.11,2.11,0,0,1,29.52,41c0-2.88,3.24-7.27,10.87-7.27,5.33,0,14,2.16,14,8.72,0,7.84-19.44,12.31-19.44,16.48,0,.65.36,1.23,1.58,1.23,3.1,0,12.53-1.3,14.77-2.45A2.59,2.59,0,0,1,53,57.24c1.88,0,2.67.93,2.67,2C55.66,64.87,43.34,68.33,34.13,68.33Z" transform="translate(-1.66 -31.53)" style="fill:#fffdf4"/><path d="M60.26,65.59s-2.66,0-2.66-1.65c0-.15.07-.37.07-.58.36-2.45,1.15-7.56,5.62-7.56,1.51,0,4.54.21,4.54,2.16C67.83,59.76,67.25,65.59,60.26,65.59Zm3-16s-2.67,0-2.67-1.66c0-.14.07-.36.07-.58.36-2.44,1.16-7.56,5.62-7.56,1.51,0,4.54.22,4.54,2.16S70.2,49.61,63.22,49.61Z" transform="translate(-1.66 -31.53)" style="fill:#fffdf4"/><path d="M80.42,68.33c-5.47,0-9.86-1.23-9.86-4,0-11.88,16.27-13.9,16.27-19.37,0-2-1.36-2.45-3.09-2.45-2.09,0-4.68.79-5.76.79A2.11,2.11,0,0,1,75.82,41c0-2.88,3.24-7.27,10.87-7.27,5.33,0,14,2.16,14,8.72,0,7.84-19.44,12.31-19.44,16.48,0,.65.36,1.23,1.58,1.23,3.1,0,12.53-1.3,14.76-2.45a2.61,2.61,0,0,1,1.73-.43c1.87,0,2.66.93,2.66,2C102,64.87,89.64,68.33,80.42,68.33Z" transform="translate(-1.66 -31.53)" style="fill:#fffdf4"/><path d="M129.24,62.06h-2.09a44.44,44.44,0,0,0-1.44,11c0,1.44.15,2.73.15,3.67,0,2.23-3.89,4.54-6.84,4.54-2.38,0-3.82-1.88-3.82-4.4,0-2.3,1.3-8.13,3.1-14.4a99.45,99.45,0,0,0-12.24,1.3c-4.47,0-5.19-2.09-5.19-4.32,0-3.89,6.63-15.48,8.64-19.23,1.37-2.59,5.33-4.1,8.14-4.1,1.73,0,3,.57,3,1.87,0,3.67-7.77,6.77-11.3,19.23,4.25,0,7.7-.08,10.51-.08,2.59-8.2,5.69-15.84,7.56-16.7A7.15,7.15,0,0,1,132.19,42a2.41,2.41,0,0,1,.8,2c0,2.3-2.31,7-4.32,13,2.44-.07,3.31-.14,3.52-.14,2.38,0,2.52,1.36,2.52,1.22C134.64,59.69,132,62.06,129.24,62.06Z" transform="translate(-1.66 -31.53)" style="fill:#fffdf4"/></svg>