<?xml version="1.0" standalone="no"?>
<!DOCTYPE svg PUBLIC "-//W3C//DTD SVG 20010904//EN"
 "http://www.w3.org/TR/2001/REC-SVG-20010904/DTD/svg10.dtd">
<svg version="1.0" xmlns="http://www.w3.org/2000/svg"
 width="795.000000pt" height="795.000000pt" viewBox="0 0 795.000000 795.000000"
 preserveAspectRatio="xMidYMid meet">
<metadata>
Created by potrace 1.14, written by Peter Selinger 2001-2017
</metadata>
<g transform="translate(0.000000,795.000000) scale(0.100000,-0.100000)"
fill="#000000" stroke="none">
<path d="M3729 7946 c-2 -2 -44 -7 -94 -10 -49 -4 -101 -9 -115 -10 -93 -13
-129 -17 -155 -22 -161 -26 -294 -54 -405 -84 -41 -11 -98 -27 -125 -35 -252
-69 -616 -230 -878 -386 -60 -35 -116 -69 -125 -74 -41 -25 -155 -105 -247
-174 -382 -288 -737 -675 -979 -1067 -37 -60 -71 -116 -76 -124 -35 -56 -188
-369 -226 -462 -111 -270 -219 -645 -249 -871 -3 -23 -8 -51 -10 -62 -1 -11
-6 -45 -10 -75 -4 -30 -9 -66 -11 -80 -25 -156 -24 -629 1 -860 14 -131 22
-193 30 -220 2 -8 7 -33 10 -55 6 -49 7 -54 35 -175 125 -558 364 -1069 711
-1527 43 -56 89 -115 103 -130 13 -16 43 -50 66 -78 76 -91 281 -294 394 -392
297 -256 643 -476 986 -629 170 -75 331 -133 550 -198 64 -19 297 -72 355 -81
341 -52 428 -59 715 -59 288 0 430 12 705 59 835 143 1664 604 2240 1246 96
107 111 124 160 189 28 36 52 67 55 70 9 9 106 143 147 205 172 257 348 611
444 894 31 90 96 307 103 344 3 12 11 51 20 87 8 36 18 79 21 95 59 317 70
444 70 790 0 231 -6 357 -20 458 -2 18 -9 66 -14 107 -6 41 -13 86 -16 100 -3
14 -7 39 -10 55 -54 321 -189 720 -357 1055 -198 394 -427 710 -743 1025 -445
445 -954 762 -1545 960 -135 46 -384 113 -475 130 -39 7 -152 25 -190 31 -77
11 -94 14 -155 20 -36 3 -74 8 -85 11 -25 6 -600 15 -606 9z m486 -400 c138
-10 240 -21 300 -32 10 -2 37 -6 60 -10 288 -41 702 -177 1006 -329 210 -106
512 -301 635 -410 7 -5 22 -19 35 -29 136 -109 335 -305 454 -447 78 -94 245
-313 245 -323 0 -2 19 -33 43 -68 126 -185 283 -511 370 -768 78 -230 143
-512 163 -709 3 -31 7 -66 9 -78 8 -49 18 -235 18 -338 1 -124 -10 -376 -17
-396 -3 -8 -7 -41 -10 -74 -4 -33 -8 -71 -11 -84 -2 -12 -7 -43 -10 -68 -2
-25 -9 -62 -14 -82 -5 -20 -12 -49 -14 -66 -8 -53 -58 -237 -94 -350 -407
-1269 -1492 -2211 -2803 -2434 -219 -38 -330 -46 -605 -46 -204 0 -381 8 -440
20 -11 3 -38 7 -60 10 -113 15 -343 61 -382 76 -13 5 -23 7 -23 4 0 -2 -26 5
-57 16 -32 11 -59 19 -61 19 -7 -3 -212 68 -319 112 -366 147 -695 350 -1012
623 -334 287 -652 701 -854 1112 -84 171 -204 481 -232 598 -3 11 -18 75 -35
142 -16 67 -31 132 -34 145 -28 154 -40 235 -54 388 -15 159 -7 617 13 741 2
13 9 58 15 99 6 41 14 89 16 105 61 384 247 870 474 1236 479 773 1222 1332
2090 1572 171 48 392 92 505 102 23 2 53 6 68 9 15 2 82 8 149 11 68 4 124 8
125 9 5 4 263 -2 348 -8z"/>
<path d="M3908 6997 c-43 -20 -78 -55 -96 -96 -16 -34 -17 -151 -17 -1497 l1
-1459 28 -52 c24 -43 53 -71 160 -152 248 -186 1051 -793 1284 -970 319 -241
294 -226 366 -226 106 1 176 66 182 168 5 87 -17 117 -169 232 -284 215 -975
737 -1224 924 l-262 196 -1 1385 c-1 762 -3 1397 -5 1413 -5 41 -41 93 -80
117 -42 26 -129 35 -167 17z"/>
</g>
</svg>
